<?xml version="1.0" encoding="UTF-8" standalone="no"?>
<!-- Created with Inkscape (http://www.inkscape.org/) -->

<svg
   width="423.30722"
   height="64.41243"
   viewBox="0 0 111.99996 17.042456"
   version="1.1"
   id="svg5"
   xml:space="preserve"
   xmlns="http://www.w3.org/2000/svg"
   xmlns:svg="http://www.w3.org/2000/svg"><defs
     id="defs2"><linearGradient
       id="swatch1"><stop
         style="stop-color:#000000;stop-opacity:1;"
         offset="0"
         id="stop1" /></linearGradient></defs><g
     id="layer1"
     transform="translate(-153.51541,-212.31427)"><g
       id="layer2"><g
         id="logo-full"><g
           id="g38"><path
             id="path11"
             style="font-size:18px;font-family:'Bank Gothic Light';-inkscape-font-specification:'Bank Gothic Light, Normal';fill:#003ca6;fill-opacity:1;fill-rule:nonzero;stroke:none;stroke-width:0.3;stroke-dasharray:none;stroke-opacity:1"
             d="m 206.53514,212.31427 c -1.64181,0 -2.15956,0.46393 -2.15956,2.17713 v 4.85397 c 0,1.71319 0.51775,2.17712 2.15956,2.17712 h 6.37118 c 1.65966,0 2.14147,-0.48178 2.14147,-2.17712 v -4.85397 c 0,-1.69535 -0.48181,-2.17713 -2.14147,-2.17713 z m 6.42027,0.56069 c 0.0392,-8.3e-4 0.0829,7e-5 0.1323,0.003 l 0.002,5.2e-4 c 0.2586,0.0141 0.68251,0.29835 0.79685,0.49196 a 0.77607762,0.77607762 0 0 1 0,0.002 c 0.22309,0.38028 0.21884,0.5734 0.0196,0.94929 -0.008,0.0139 -0.0567,0.0913 -0.0568,0.0915 -1e-4,2e-4 -0.0251,0.0333 -0.0331,0.0434 -0.0168,0.0203 -0.0251,0.0308 -0.0331,0.0388 -0.016,0.0169 -0.0256,0.0245 -0.0336,0.0315 -0.0155,0.0148 -0.0263,0.0259 -0.0388,0.0372 -0.025,0.0226 -0.0538,0.0465 -0.0899,0.078 -0.0265,0.0231 -0.0569,0.0493 -0.0904,0.0785 v 5.5175 h -5.71593 c -0.10094,0.0468 -0.19778,0.0919 -0.28938,0.13436 -0.25643,0.11894 -0.47329,0.21893 -0.62891,0.29093 -0.15561,0.0719 -0.17566,0.0847 -0.28318,0.13075 v -0.002 c -0.13656,0.0585 -0.34234,0.0749 -0.53589,0.0506 a 0.77607762,0.77607762 0 0 1 -0.36845,-0.11317 v -5.2e-4 -5.1e-4 -5.2e-4 l -5.2e-4,-5.2e-4 h -5.1e-4 v 5.2e-4 h -5.2e-4 -5.2e-4 c -0.37954,-0.23262 -0.48795,-0.48144 -0.46095,-0.89452 a 0.77607762,0.77607762 0 0 1 0,-0.002 c 0.0188,-0.28437 0.13046,-0.42956 0.22066,-0.54105 a 0.77607762,0.77607762 0 0 1 0.002,-0.002 c 0.079,-0.0969 0.0686,-0.0752 0.0822,-0.0879 0.0135,-0.0128 0.027,-0.0227 0.0408,-0.0351 0.0275,-0.0247 0.0598,-0.0556 0.10129,-0.092 0.058,-0.0508 0.13152,-0.11384 0.21756,-0.18758 v -5.32216 h 5.24412 c 0.55142,-0.22711 0.90961,-0.37357 1.14825,-0.46922 0.32035,-0.12845 0.37834,-0.21332 0.65267,-0.21911 z" /><path
             style="fill:#ff7403;fill-opacity:1;stroke:none;stroke-width:1.552;stroke-linecap:round;stroke-linejoin:round;stroke-miterlimit:4;stroke-dasharray:none;stroke-opacity:1;paint-order:stroke fill markers"
             d="m 206.11238,220.06738 c -0.0562,-0.0343 -0.0971,-0.11617 -0.0926,-0.18502 0.002,-0.0302 0.0193,-0.0659 0.0506,-0.10458 0.0263,-0.0322 0.70682,-0.61766 1.51256,-1.30092 0.80573,-0.68323 1.46527,-1.24666 1.46562,-1.25207 3.6e-4,-0.006 -0.30219,-0.25827 -0.67228,-0.56199 -0.3701,-0.30369 -0.68124,-0.56689 -0.69142,-0.58488 -0.0322,-0.0569 -0.0285,-0.14464 0.009,-0.20178 0.018,-0.0278 0.0458,-0.0575 0.0618,-0.0659 0.0159,-0.009 1.19767,-0.4982 2.62628,-1.08815 2.40121,-0.9916 2.60271,-1.07237 2.66698,-1.06903 0.0785,0.004 0.12334,0.0337 0.16898,0.11098 0.0301,0.0513 0.0314,0.14017 0.003,0.19376 -0.009,0.0175 -0.6065,0.52837 -1.32689,1.13519 l -1.30977,1.10331 0.63189,0.5177 c 0.67512,0.55313 0.67373,0.55173 0.66633,0.66449 -0.004,0.0658 -0.0471,0.12674 -0.1145,0.16289 -0.0542,0.0292 -5.3547,2.4928 -5.45986,2.53776 -0.0719,0.0308 -0.1317,0.0272 -0.195,-0.0118 z"
             id="path12" /></g><g
           id="g37"><path
             d="m 153.51541,221.52271 h 8.94073 v -1.26705 h -7.40599 v -2.92671 h 4.47928 v -1.21351 h -4.47928 v -2.56979 h 7.33461 v -1.23136 h -8.86935 z"
             id="path1"
             style="font-size:18px;font-family:'Bank Gothic Light';-inkscape-font-specification:'Bank Gothic Light, Normal';fill:#003ca6;fill-opacity:1;fill-rule:nonzero;stroke:none;stroke-width:0.3;stroke-linecap:square;stroke-linejoin:miter;stroke-dasharray:none;stroke-opacity:1;paint-order:normal" /><path
             d="m 166.11451,221.52271 h 8.51243 v -1.2849 h -6.97769 v -7.92352 h -1.53474 z"
             id="path2"
             style="font-size:18px;font-family:'Bank Gothic Light';-inkscape-font-specification:'Bank Gothic Light, Normal';fill:#003ca6;fill-opacity:1;fill-rule:nonzero;stroke:none;stroke-width:0.3;stroke-linecap:square;stroke-linejoin:miter;stroke-dasharray:none;stroke-opacity:1;paint-order:normal" /><path
             d="m 177.7678,221.52271 h 1.53473 v -3.587 h 5.88911 c 1.33843,0 1.94519,-0.49968 1.94519,-1.78458 v -2.05226 c 0,-1.2849 -0.60676,-1.78458 -1.94519,-1.78458 h -7.42384 z m 6.81708,-8.01275 c 0.69599,0 0.99936,0.1963 0.99936,0.96367 v 1.2849 c 0,0.78521 -0.32122,0.96367 -0.99936,0.96367 h -5.28235 v -3.21224 z"
             id="path3"
             style="font-size:18px;font-family:'Bank Gothic Light';-inkscape-font-specification:'Bank Gothic Light, Normal';fill:#003ca6;fill-opacity:1;fill-rule:nonzero;stroke:none;stroke-width:0.3;stroke-dasharray:none;stroke-opacity:1" /><path
             d="m 190.90228,221.52271 h 1.53474 v -3.587 h 2.71255 l 3.74762,3.587 h 2.28425 l -4.2116,-3.587 h 1.35628 c 1.33843,0 1.94519,-0.49968 1.94519,-1.78458 v -2.05226 c 0,-1.2849 -0.60676,-1.78458 -1.94519,-1.78458 h -7.42384 z m 6.81708,-8.01275 c 0.67814,0 0.99937,0.17846 0.99937,0.94583 v 1.33843 c 0,0.78521 -0.32123,0.94582 -0.99937,0.94582 h -5.28234 v -3.23008 z"
             id="path4"
             style="font-size:18px;font-family:'Bank Gothic Light';-inkscape-font-specification:'Bank Gothic Light, Normal';fill:#003ca6;fill-opacity:1;fill-rule:nonzero;stroke:none;stroke-width:0.3;stroke-dasharray:none;stroke-opacity:1" /><path
             d="m 221.27577,221.52271 h 3.69407 c 1.65966,0 2.15934,-0.48184 2.15934,-2.17718 v -7.03124 h -1.53474 v 7.92352 h -4.94328 v -3.05162 l -1.51689,0.32122 v 1.83811 c 0,1.69535 0.48184,2.17719 2.1415,2.17719 z"
             id="path5"
             style="font-size:18px;font-family:'Bank Gothic Light';-inkscape-font-specification:'Bank Gothic Light, Normal';fill:#003ca6;fill-opacity:1;fill-rule:nonzero;stroke:none;stroke-width:0.3;stroke-dasharray:none;stroke-opacity:1" /><path
             d="m 231.78694,221.52271 h 8.94073 v -1.26705 h -7.40599 v -2.92671 h 4.47929 v -1.21351 h -4.47929 v -2.56979 h 7.33461 v -1.23136 h -8.86935 z"
             id="path6"
             style="font-size:18px;font-family:'Bank Gothic Light';-inkscape-font-specification:'Bank Gothic Light, Normal';fill:#003ca6;fill-opacity:1;fill-rule:nonzero;stroke:none;stroke-width:0.3;stroke-dasharray:none;stroke-opacity:1" /><path
             d="m 244.38603,221.52271 h 1.53474 v -4.14022 l 6.15679,4.14022 h 2.56979 l -7.40599,-4.80051 6.67431,-4.40791 h -2.24856 l -5.74634,3.94392 v -3.94392 h -1.53474 z"
             id="path8"
             style="font-size:18px;font-family:'Bank Gothic Light';-inkscape-font-specification:'Bank Gothic Light, Normal';fill:#003ca6;fill-opacity:1;fill-rule:nonzero;stroke:none;stroke-width:0.3;stroke-dasharray:none;stroke-opacity:1" /><path
             d="m 261.28596,213.5635 h 4.22945 v -1.24921 h -9.97578 v 1.24921 h 4.2116 v 7.95921 h 1.53473 z"
             id="path9"
             style="font-size:18px;font-family:'Bank Gothic Light';-inkscape-font-specification:'Bank Gothic Light, Normal';fill:#003ca6;fill-opacity:1;fill-rule:nonzero;stroke:none;stroke-width:0.3;stroke-dasharray:none;stroke-opacity:1" /></g><path
           style="fill:#003ca6;fill-opacity:1;fill-rule:nonzero;stroke:#003ca6;stroke-width:0.565;stroke-linecap:butt;stroke-linejoin:miter;stroke-dasharray:none;stroke-opacity:1"
           d="M 154.50876,223.61677 H 264.52207"
           id="path10" /><path
           d="m 168.26738,225.77559 h -1.97096 v 3.58105 h 1.97096 c 0.60379,0 1.05489,-0.0694 1.37413,-0.2776 0.46498,-0.30536 0.74258,-0.86056 0.74258,-1.53375 0,-0.63848 -0.28454,-1.19368 -0.74258,-1.4921 -0.32618,-0.2082 -0.77034,-0.2776 -1.37413,-0.2776 z m -0.0833,0.4858 c 1.06183,0 1.58927,0.3123 1.58927,1.2839 0,1.01325 -0.5205,1.31167 -1.58927,1.31167 h -1.29084 v -2.59557 z m 3.71986,3.09525 h 0.59684 v -3.58105 h -0.59684 z m 3.84477,-3.09525 h 1.64479 v -0.4858 h -3.87947 v 0.4858 h 1.63784 v 3.09525 h 0.59684 z m 4.42081,0 h 1.64478 v -0.4858 h -3.87947 v 0.4858 h 1.63784 v 3.09525 h 0.59685 z m 5.24666,3.09525 h 0.59684 v -1.39495 h 2.29021 c 0.5205,0 0.75646,-0.19432 0.75646,-0.694 v -0.7981 c 0,-0.49968 -0.23596,-0.694 -0.75646,-0.694 h -2.88705 z m 2.65109,-3.11607 c 0.27066,0 0.38864,0.0763 0.38864,0.37476 v 0.49968 c 0,0.30536 -0.12492,0.37476 -0.38864,0.37476 h -2.05425 v -1.2492 z m 2.45677,3.11607 h 0.59684 v -1.39495 h 1.05488 l 1.45741,1.39495 h 0.88832 l -1.63785,-1.39495 h 0.52745 c 0.5205,0 0.75646,-0.19432 0.75646,-0.694 v -0.7981 c 0,-0.49968 -0.23596,-0.694 -0.75646,-0.694 h -2.88705 z m 2.65109,-3.11607 c 0.26372,0 0.38864,0.0694 0.38864,0.36782 v 0.5205 c 0,0.30536 -0.12492,0.36782 -0.38864,0.36782 h -2.05425 v -1.25614 z m 2.58862,0.3817 v 1.88769 c 0,0.66624 0.20126,0.84668 0.83974,0.84668 h 2.47759 c 0.64542,0 0.8328,-0.18738 0.8328,-0.84668 v -1.88769 c 0,-0.6593 -0.18738,-0.84668 -0.8328,-0.84668 h -2.47759 c -0.63848,0 -0.83974,0.18044 -0.83974,0.84668 z m 0.59684,2.23469 v -2.59557 h 2.96339 v 2.59557 z m 5.97536,0.49968 h 1.43659 c 0.64542,0 0.83974,-0.18738 0.83974,-0.84668 v -2.73437 h -0.59684 v 3.08137 h -1.92239 v -1.18675 l -0.5899,0.12492 v 0.71483 c 0,0.6593 0.18738,0.84668 0.8328,0.84668 z m 4.08768,0 h 3.47695 v -0.49274 h -2.88011 v -1.13817 h 1.74195 v -0.47192 h -1.74195 v -0.99936 h 2.85235 v -0.47886 h -3.44919 z m 4.89965,0 h 0.59684 v -1.61009 l 2.39431,1.61009 h 0.99936 l -2.88011,-1.86687 2.59557,-1.71418 h -0.87444 l -2.23469,1.53374 v -1.53374 h -0.59684 z m 6.5722,-3.09525 h 1.64479 v -0.4858 h -3.87948 v 0.4858 h 1.63785 v 3.09525 h 0.59684 z m 5.24667,3.09525 h 0.59684 v -3.58105 h -0.59684 z m 5.05234,0 h 0.59684 v -1.44353 h 1.60314 v -0.47886 h -1.60314 v -1.17286 h 2.81071 v -0.4858 h -3.40755 z m 4.3722,-2.73437 v 1.88769 c 0,0.66624 0.20126,0.84668 0.83975,0.84668 h 2.47758 c 0.64542,0 0.83281,-0.18738 0.83281,-0.84668 v -1.88769 c 0,-0.6593 -0.18739,-0.84668 -0.83281,-0.84668 h -2.47758 c -0.63849,0 -0.83975,0.18044 -0.83975,0.84668 z m 0.59684,2.23469 v -2.59557 h 2.96339 v 2.59557 z m 5.37159,0.49968 h 0.59684 v -1.61009 l 2.39431,1.61009 h 0.99936 l -2.88011,-1.86687 2.59557,-1.71418 h -0.87444 l -2.23469,1.53374 v -1.53374 h -0.59684 z m 5.52426,-3.58105 h -0.59684 v 2.73437 c 0,0.66624 0.20126,0.84668 0.83974,0.84668 h 2.12365 c 0.64542,0 0.8328,-0.18738 0.8328,-0.84668 v -2.73437 h -0.5899 v 3.08137 h -2.60945 z m 8.11982,0.4858 v 0.5205 l 0.51357,-0.14574 v -0.0763 c 0,-0.61766 -0.24291,-0.78422 -0.83975,-0.78422 h -1.9085 c -0.63849,0 -0.83281,0.18044 -0.83281,0.84668 v 0.3123 c 0,0.66624 0.19432,0.84668 0.83281,0.84668 h 2.24856 v 1.07571 h -2.66497 v -0.57602 l -0.5552,0.13186 v 0.0972 c 0,0.6593 0.19433,0.84668 0.83975,0.84668 h 2.08894 c 0.64543,0 0.83281,-0.18738 0.83281,-0.84668 v -0.40253 c 0,-0.64542 -0.18044,-0.84668 -0.83281,-0.84668 h -2.2555 v -0.99936 z"
           id="tagline"
           style="font-size:26.4567px;line-height:1.25;font-family:'Bank Gothic Light';-inkscape-font-specification:'Bank Gothic Light, Normal';white-space:pre;fill:#003ca6;stroke-width:0.264583"
           aria-label="DITT PROJEKT I FOKUS" /></g></g></g></svg>
