<?xml version="1.0" encoding="UTF-8" standalone="no"?>
<!-- Created with Inkscape (http://www.inkscape.org/) -->

<svg
   width="423.30722"
   height="34.804657"
   viewBox="0 0 111.99996 9.2087325"
   version="1.1"
   id="svg5"
   xml:space="preserve"
   xmlns="http://www.w3.org/2000/svg"
   xmlns:svg="http://www.w3.org/2000/svg"><defs
     id="defs2"><linearGradient
       id="swatch1"><stop
         style="stop-color:#000000;stop-opacity:1;"
         offset="0"
         id="stop1" /></linearGradient></defs><g
     id="layer1"
     transform="translate(-160.51901,-85.130182)"><g
       id="g14"
       transform="translate(-290.19448,26.130841)"><g
         id="full_name"><g
           id="icon"><path
             id="path1"
             style="font-size:18px;font-family:'Bank Gothic Light';-inkscape-font-specification:'Bank Gothic Light, Normal';fill:#003ca6;fill-opacity:1;stroke:none;stroke-width:0.3;stroke-dasharray:none;stroke-opacity:1"
             d="m 504.22309,58.999342 c -1.64181,0 -2.15956,0.46444 -2.15956,2.17764 v 4.85397 c 0,1.66413 0.48832,2.14966 2.02106,2.17609 0.18723,-0.30434 0.66964,-1.06589 1.22163,-1.92701 0.69814,-1.08907 1.26813,-1.98567 1.26659,-1.99213 -0.002,-0.007 -0.44628,-0.19374 -0.98857,-0.41651 -0.54228,-0.22274 -1.0012,-0.41926 -1.01957,-0.43667 -0.0581,-0.0551 -0.0854,-0.15891 -0.062,-0.23926 0.011,-0.039 0.0334,-0.08362 0.0491,-0.09922 0.0154,-0.0162 1.22321,-1.01353 2.68407,-2.21692 1.26235,-1.03985 1.93028,-1.58901 2.29185,-1.87998 z m 6.04459,0 c -0.0968,0.16464 -0.56894,0.90545 -1.1281,1.77146 l -1.1374,1.76217 0.92553,0.37931 c 0.98893,0.4053 0.98675,0.40431 1.01854,0.53898 0.0188,0.0785 -0.01,0.16502 -0.0755,0.23151 -0.044,0.04459 -3.72084,3.35268 -5.02811,4.5253 h 5.75106 c 1.65965,0 2.14147,-0.48178 2.14147,-2.17712 v -4.85397 c 0,-1.69535 -0.48182,-2.17764 -2.14147,-2.17764 z" /></g><path
           d="m 450.71349,68.207915 h 8.94073 v -1.267051 h -7.40599 V 64.01416 h 4.47929 v -1.213513 h -4.47929 v -2.56979 h 7.33461 v -1.231358 h -8.86935 z"
           id="path2"
           style="font-size:18px;font-family:'Bank Gothic Light';-inkscape-font-specification:'Bank Gothic Light, Normal';fill:#003ca6;fill-opacity:1;stroke:none;stroke-width:0.3;stroke-linecap:square;stroke-linejoin:miter;stroke-dasharray:none;stroke-opacity:1;paint-order:normal" /><path
           d="m 463.31259,68.207915 h 8.51243 v -1.284896 h -6.97769 v -7.92352 h -1.53474 z"
           id="path3"
           style="font-size:18px;font-family:'Bank Gothic Light';-inkscape-font-specification:'Bank Gothic Light, Normal';fill:#003ca6;fill-opacity:1;stroke:none;stroke-width:0.3;stroke-linecap:square;stroke-linejoin:miter;stroke-dasharray:none;stroke-opacity:1;paint-order:normal" /><path
           d="m 474.96588,68.207915 h 1.53473 v -3.587 h 5.88911 c 1.33843,0 1.94519,-0.499681 1.94519,-1.784577 v -2.052262 c 0,-1.284896 -0.60676,-1.784577 -1.94519,-1.784577 h -7.42384 z m 6.81708,-8.01275 c 0.69599,0 0.99936,0.196304 0.99936,0.963672 v 1.284894 c 0,0.785214 -0.32122,0.963673 -0.99936,0.963673 h -5.28235 v -3.212239 z"
           id="path4"
           style="font-size:18px;font-family:'Bank Gothic Light';-inkscape-font-specification:'Bank Gothic Light, Normal';fill:#003ca6;fill-opacity:1;stroke:none;stroke-width:0.3;stroke-dasharray:none;stroke-opacity:1" /><path
           d="m 488.10036,68.207915 h 1.53474 v -3.587 h 2.71256 l 3.74761,3.587 h 2.28425 l -4.2116,-3.587 h 1.35628 c 1.33843,0 1.94519,-0.499681 1.94519,-1.784577 v -2.052262 c 0,-1.284896 -0.60676,-1.784577 -1.94519,-1.784577 h -7.42384 z m 6.81709,-8.01275 c 0.67814,0 0.99936,0.178458 0.99936,0.945826 v 1.338432 c 0,0.785214 -0.32122,0.945826 -0.99936,0.945826 h -5.28235 v -3.230084 z"
           id="path5"
           style="font-size:18px;font-family:'Bank Gothic Light';-inkscape-font-specification:'Bank Gothic Light, Normal';fill:#003ca6;fill-opacity:1;stroke:none;stroke-width:0.3;stroke-dasharray:none;stroke-opacity:1" /><path
           d="m 518.47385,68.207915 h 3.69407 c 1.65966,0 2.15934,-0.481836 2.15934,-2.177184 v -7.031232 h -1.53474 v 7.92352 h -4.94327 v -3.051627 l -1.51689,0.321224 v 1.838114 c 0,1.695349 0.48183,2.177184 2.14149,2.177185 z"
           id="path6"
           style="font-size:18px;font-family:'Bank Gothic Light';-inkscape-font-specification:'Bank Gothic Light, Normal';fill:#003ca6;fill-opacity:1;stroke:none;stroke-width:0.3;stroke-dasharray:none;stroke-opacity:1" /><path
           d="m 528.98502,68.207915 h 8.94073 v -1.267051 h -7.40599 V 64.01416 h 4.47929 v -1.213513 h -4.47929 v -2.56979 h 7.33461 v -1.231358 h -8.86935 z"
           id="path7"
           style="font-size:18px;font-family:'Bank Gothic Light';-inkscape-font-specification:'Bank Gothic Light, Normal';fill:#003ca6;fill-opacity:1;stroke:none;stroke-width:0.3;stroke-dasharray:none;stroke-opacity:1" /><path
           d="m 541.58412,68.207915 h 1.53473 v -4.140218 l 6.15679,4.140218 h 2.56979 l -7.40599,-4.800511 6.67431,-4.407905 h -2.24856 l -5.74634,3.943915 v -3.943915 h -1.53473 z"
           id="path8"
           style="font-size:18px;font-family:'Bank Gothic Light';-inkscape-font-specification:'Bank Gothic Light, Normal';fill:#003ca6;fill-opacity:1;stroke:none;stroke-width:0.3;stroke-dasharray:none;stroke-opacity:1" /><path
           d="m 558.48405,60.248702 h 4.22944 v -1.249203 h -9.97578 v 1.249203 h 4.2116 v 7.959213 h 1.53474 z"
           id="path9"
           style="font-size:18px;font-family:'Bank Gothic Light';-inkscape-font-specification:'Bank Gothic Light, Normal';fill:#003ca6;fill-opacity:1;stroke:none;stroke-width:0.3;stroke-dasharray:none;stroke-opacity:1" /></g><g
         id="centerline"><path
           style="fill:#003ca6;fill-opacity:1;stroke:#003ca6;stroke-width:0.565;stroke-linecap:butt;stroke-linejoin:miter;stroke-dasharray:none;stroke-opacity:1"
           d="M 451.70684,70.301972 H 561.72015"
           id="path10" /></g><g
         id="tagline"><path
           d="m 122.58038,251.01838 h -7.5137 v 13.65166 h 7.5137 c 2.30174,0 4.02142,-0.26457 5.23843,-1.05827 1.7726,-1.1641 2.83087,-3.28063 2.83087,-5.84693 0,-2.43402 -1.08473,-4.55055 -2.83087,-5.68819 -1.24346,-0.7937 -2.93669,-1.05827 -5.23843,-1.05827 z m -0.31748,1.85197 c 4.04788,0 6.05859,1.19055 6.05859,4.89449 0,3.86268 -1.98425,5.00031 -6.05859,5.00031 h -4.92094 v -9.8948 z m 14.18081,11.79969 h 2.27528 v -13.65166 h -2.27528 z m 14.65701,-11.79969 h 6.27024 v -1.85197 h -14.78929 v 1.85197 h 6.24378 v 11.79969 h 2.27527 z m 16.85295,0 h 6.27024 v -1.85197 h -14.7893 v 1.85197 h 6.24378 v 11.79969 h 2.27528 z m 20.00129,11.79969 h 2.27528 v -5.3178 h 8.73071 c 1.98425,0 2.88378,-0.74079 2.88378,-2.64567 v -3.04252 c 0,-1.90488 -0.89953,-2.64567 -2.88378,-2.64567 h -11.00599 z m 10.10646,-11.87906 c 1.03182,0 1.48158,0.29102 1.48158,1.42866 v 1.90488 c 0,1.1641 -0.47622,1.42866 -1.48158,1.42866 h -7.83118 v -4.7622 z m 9.36568,11.87906 h 2.27528 v -5.3178 h 4.02142 l 5.5559,5.3178 h 3.38646 l -6.24378,-5.3178 h 2.01071 c 1.98425,0 2.88378,-0.74079 2.88378,-2.64567 v -3.04252 c 0,-1.90488 -0.89953,-2.64567 -2.88378,-2.64567 H 207.4271 Z m 10.10646,-11.87906 c 1.00536,0 1.48158,0.26457 1.48158,1.4022 v 1.98426 c 0,1.16409 -0.47622,1.4022 -1.48158,1.4022 h -7.83118 v -4.78866 z m 9.86833,1.45512 v 7.19622 c 0,2.53984 0.76724,3.22772 3.20126,3.22772 h 9.44504 c 2.46047,0 3.1748,-0.71433 3.1748,-3.22772 v -7.19622 c 0,-2.51339 -0.71433,-3.22772 -3.1748,-3.22772 h -9.44504 c -2.43402,0 -3.20126,0.68787 -3.20126,3.22772 z m 2.27527,8.51905 v -9.8948 h 11.29701 v 9.8948 z m 22.77924,1.90489 h 5.47653 c 2.46048,0 3.20126,-0.71433 3.20126,-3.22772 v -10.42394 h -2.27527 v 11.74677 h -7.32851 v -4.52409 l -2.24882,0.47622 v 2.72504 c 0,2.51339 0.71433,3.22772 3.17481,3.22772 z m 15.58301,0 h 13.25481 v -1.87843 h -10.97953 v -4.3389 h 6.64063 v -1.79905 h -6.64063 v -3.80977 h 10.8737 v -1.82551 h -13.14898 z m 18.67841,0 h 2.27528 v -6.13796 l 9.12756,6.13796 h 3.80976 l -10.97953,-7.11686 9.89481,-6.5348 h -3.33355 l -8.51905,5.84693 v -5.84693 h -2.27528 z m 25.05449,-11.79969 h 6.27024 v -1.85197 h -14.78929 v 1.85197 h 6.24378 v 11.79969 h 2.27527 z m 20.0013,11.79969 h 2.27527 v -13.65166 h -2.27527 z m 19.26049,0 h 2.27528 v -5.503 h 6.1115 v -1.82551 h -6.1115 v -4.47118 h 10.71496 v -1.85197 H 351.0341 Z m 16.6677,-10.42394 v 7.19622 c 0,2.53984 0.76724,3.22772 3.20126,3.22772 h 9.44504 c 2.46047,0 3.1748,-0.71433 3.1748,-3.22772 v -7.19622 c 0,-2.51339 -0.71433,-3.22772 -3.1748,-3.22772 h -9.44504 c -2.43402,0 -3.20126,0.68787 -3.20126,3.22772 z m 2.27527,8.51905 v -9.8948 h 11.29701 v 9.8948 z m 20.47752,1.90489 h 2.27528 v -6.13796 l 9.12756,6.13796 h 3.80976 l -10.97953,-7.11686 9.89481,-6.5348 h -3.33355 l -8.51905,5.84693 v -5.84693 h -2.27528 z m 21.05955,-13.65166 h -2.27528 v 10.42394 c 0,2.53984 0.76725,3.22772 3.20126,3.22772 h 8.09575 c 2.46048,0 3.17481,-0.71433 3.17481,-3.22772 v -10.42394 h -2.24882 v 11.74677 h -9.94772 z m 30.95432,1.85197 v 1.98425 l 1.9578,-0.55559 v -0.29102 c 0,-2.35465 -0.92599,-2.98961 -3.20126,-2.98961 h -7.27559 c -2.43402,0 -3.17481,0.68787 -3.17481,3.22772 v 1.19055 c 0,2.53984 0.74079,3.22772 3.17481,3.22772 h 8.57197 v 4.10078 H 432.362 v -2.1959 l -2.11653,0.50268 v 0.37039 c 0,2.51339 0.74079,3.22772 3.20126,3.22772 h 7.96347 c 2.46047,0 3.1748,-0.71433 3.1748,-3.22772 v -1.53449 c 0,-2.46047 -0.68787,-3.22772 -3.1748,-3.22772 h -8.59843 v -3.80976 z"
           id="text10"
           style="font-size:26.4567px;line-height:1.25;font-family:'Bank Gothic Light';-inkscape-font-specification:'Bank Gothic Light, Normal';white-space:pre;fill:#003ca6;stroke-width:1.00864"
           transform="matrix(0.26231624,0,0,0.26231624,433.31064,6.6145979)"
           aria-label="DITT PROJEKT I FOKUS" /></g></g></g></svg>
