<?xml version="1.0" encoding="UTF-8" standalone="no"?>
<!-- Created with Inkscape (http://www.inkscape.org/) -->

<svg
   width="40.335922"
   height="34.802734"
   viewBox="0 0 10.672206 9.2082239"
   version="1.1"
   id="svg5"
   xml:space="preserve"
   xmlns="http://www.w3.org/2000/svg"
   xmlns:svg="http://www.w3.org/2000/svg"><defs
     id="defs2"><linearGradient
       id="swatch1"><stop
         style="stop-color:#000000;stop-opacity:1;"
         offset="0"
         id="stop1" /></linearGradient></defs><g
     id="layer1"
     transform="translate(-204.37558,-267.99007)"><g
       id="layer2"><g
         id="g69"
         transform="translate(0,55.675805)"><path
           id="path68"
           style="font-size:18px;font-family:'Bank Gothic Light';-inkscape-font-specification:'Bank Gothic Light, Normal';fill:#003ca6;fill-opacity:1;fill-rule:nonzero;stroke:none;stroke-width:0.3;stroke-dasharray:none;stroke-opacity:1"
           d="m 206.53514,212.31427 c -1.64181,0 -2.15956,0.46393 -2.15956,2.17713 v 4.85397 c 0,1.71319 0.51775,2.17712 2.15956,2.17712 h 6.37118 c 1.65966,0 2.14147,-0.48178 2.14147,-2.17712 v -4.85397 c 0,-1.69535 -0.48181,-2.17713 -2.14147,-2.17713 z m 6.42027,0.56069 c 0.0392,-8.3e-4 0.0829,7e-5 0.1323,0.003 l 0.002,5.2e-4 c 0.2586,0.0141 0.68251,0.29835 0.79685,0.49196 a 0.77607762,0.77607762 0 0 1 0,0.002 c 0.22309,0.38028 0.21884,0.5734 0.0196,0.94929 -0.008,0.0139 -0.0567,0.0913 -0.0568,0.0915 -1e-4,2e-4 -0.0251,0.0333 -0.0331,0.0434 -0.0168,0.0203 -0.0251,0.0308 -0.0331,0.0388 -0.016,0.0169 -0.0256,0.0245 -0.0336,0.0315 -0.0155,0.0148 -0.0263,0.0259 -0.0388,0.0372 -0.025,0.0226 -0.0538,0.0465 -0.0899,0.078 -0.0265,0.0231 -0.0569,0.0493 -0.0904,0.0785 v 5.5175 h -5.71593 c -0.10094,0.0468 -0.19778,0.0919 -0.28938,0.13436 -0.25643,0.11894 -0.47329,0.21893 -0.62891,0.29093 -0.15561,0.0719 -0.17566,0.0847 -0.28318,0.13075 v -0.002 c -0.13656,0.0585 -0.34234,0.0749 -0.53589,0.0506 a 0.77607762,0.77607762 0 0 1 -0.36845,-0.11317 v -5.2e-4 -5.1e-4 -5.2e-4 l -5.2e-4,-5.2e-4 h -5.1e-4 v 5.2e-4 h -5.2e-4 -5.2e-4 c -0.37954,-0.23262 -0.48795,-0.48144 -0.46095,-0.89452 a 0.77607762,0.77607762 0 0 1 0,-0.002 c 0.0188,-0.28437 0.13046,-0.42956 0.22066,-0.54105 a 0.77607762,0.77607762 0 0 1 0.002,-0.002 c 0.079,-0.0969 0.0686,-0.0752 0.0822,-0.0879 0.0135,-0.0128 0.027,-0.0227 0.0408,-0.0351 0.0275,-0.0247 0.0598,-0.0556 0.10129,-0.092 0.058,-0.0508 0.13152,-0.11384 0.21756,-0.18758 v -5.32216 h 5.24412 c 0.55142,-0.22711 0.90961,-0.37357 1.14825,-0.46922 0.32035,-0.12845 0.37834,-0.21332 0.65267,-0.21911 z" /><path
           style="fill:#ff7403;fill-opacity:1;stroke:none;stroke-width:1.552;stroke-linecap:round;stroke-linejoin:round;stroke-miterlimit:4;stroke-dasharray:none;stroke-opacity:1;paint-order:stroke fill markers"
           d="m 206.11238,220.06738 c -0.0562,-0.0343 -0.0971,-0.11617 -0.0926,-0.18502 0.002,-0.0302 0.0193,-0.0659 0.0506,-0.10458 0.0263,-0.0322 0.70682,-0.61766 1.51256,-1.30092 0.80573,-0.68323 1.46527,-1.24666 1.46562,-1.25207 3.6e-4,-0.006 -0.30219,-0.25827 -0.67228,-0.56199 -0.3701,-0.30369 -0.68124,-0.56689 -0.69142,-0.58488 -0.0322,-0.0569 -0.0285,-0.14464 0.009,-0.20178 0.018,-0.0278 0.0458,-0.0575 0.0618,-0.0659 0.0159,-0.009 1.19767,-0.4982 2.62628,-1.08815 2.40121,-0.9916 2.60271,-1.07237 2.66698,-1.06903 0.0785,0.004 0.12334,0.0337 0.16898,0.11098 0.0301,0.0513 0.0314,0.14017 0.003,0.19376 -0.009,0.0175 -0.6065,0.52837 -1.32689,1.13519 l -1.30977,1.10331 0.63189,0.5177 c 0.67512,0.55313 0.67373,0.55173 0.66633,0.66449 -0.004,0.0658 -0.0471,0.12674 -0.1145,0.16289 -0.0542,0.0292 -5.3547,2.4928 -5.45986,2.53776 -0.0719,0.0308 -0.1317,0.0272 -0.195,-0.0118 z"
           id="path69" /></g></g></g></svg>
